<svg width="660" height="440" viewBox="0 0 660 440" fill="none" xmlns="http://www.w3.org/2000/svg">
<g clip-path="url(#clip0_943_2)">
<path d="M220 220C220 248.891 214.31 277.499 203.253 304.19C192.197 330.882 175.992 355.135 155.564 375.564C135.135 395.992 110.882 412.197 84.1904 423.254C57.4987 434.31 28.8908 440 0 440V220H220Z" fill="#009465"/>
<path d="M0 0C28.8908 0 57.4987 5.68999 84.1903 16.747C110.882 27.803 135.135 44.008 155.564 64.436C175.992 84.865 192.197 109.118 203.254 135.81C214.31 162.501 220 191.109 220 220H0L0 0Z" fill="black"/>
<path d="M439.976 -0.048645C561.492 -0.048635 660 98.4596 660 219.976C660 341.492 561.492 440 439.976 440C318.46 440 219.951 341.492 219.951 219.976C219.951 98.4595 318.46 -0.048655 439.976 -0.048645Z" fill="#009465" stroke="black"/>
<path d="M439.976 440C498.33 440 554.293 416.819 595.556 375.557C636.818 334.294 660 278.33 660 219.976H439.976V440Z" fill="white" stroke="black"/>
<path d="M439.976 -0.048645C381.621 -0.048655 325.658 23.1324 284.395 64.395C243.132 105.657 219.951 161.621 219.951 219.976H439.976V-0.048645Z" fill="black" stroke="black"/>
<path d="M439.976 109.964C500.733 109.964 549.988 159.218 549.988 219.976C549.988 280.733 500.733 329.988 439.976 329.988C379.218 329.988 329.963 280.733 329.963 219.976C329.963 159.218 379.218 109.964 439.976 109.964Z" fill="black" stroke="black"/>
<path d="M549.988 219.976C549.988 190.798 538.398 162.816 517.766 142.185C497.135 121.554 469.153 109.964 439.976 109.964C410.798 109.964 382.816 121.554 362.185 142.185C341.554 162.816 329.963 190.798 329.963 219.976H549.988Z" fill="white" stroke="black"/>
</g>
<defs>
<clipPath id="clip0_943_2">
<rect width="660" height="440" fill="white"/>
</clipPath>
</defs>
</svg>
