<svg version="1.0" xmlns="http://www.w3.org/2000/svg"
 width="382.000000pt" height="98.000000pt" viewBox="0 0 382.000000 98.000000"
 preserveAspectRatio="xMidYMid meet">
<g transform="translate(0.000000,98.000000) scale(0.100000,-0.100000)"
fill="#000000" stroke="none">
<path d="M0 490 l0 -490 1910 0 1910 0 0 490 0 490 -1910 0 -1910 0 0 -490z
m260 355 l0 -115 115 0 115 0 0 115 0 115 120 0 120 0 0 -115 0 -115 120 0
120 0 0 115 0 115 120 0 120 0 0 -115 0 -115 115 0 115 0 0 115 0 115 120 0
120 0 0 -115 0 -115 115 0 115 0 0 115 0 115 120 0 120 0 0 -115 0 -115 115 0
115 0 0 115 0 115 120 0 120 0 0 -115 0 -115 115 0 115 0 0 115 0 115 120 0
120 0 0 -115 0 -115 115 0 115 0 0 115 0 115 120 0 120 0 0 -115 0 -114 118
-3 117 -3 3 -117 3 -118 -121 0 -120 0 0 -115 0 -114 118 -3 117 -3 3 -118 3
-117 -121 0 -120 0 0 115 0 115 -115 0 -115 0 0 -115 0 -115 -120 0 -120 0 0
115 0 115 -115 0 -115 0 0 -115 0 -115 -120 0 -120 0 0 115 0 115 -120 0 -120
0 0 -115 0 -115 -120 0 -120 0 0 115 0 115 -115 0 -115 0 0 -115 0 -115 -120
0 -120 0 0 115 0 115 -115 0 -115 0 0 -115 0 -115 -120 0 -120 0 0 115 0 115
-115 0 -115 0 0 -115 0 -115 -120 0 -120 0 0 115 0 115 -115 0 -115 0 0 -115
0 -115 -120 0 -120 0 0 115 0 115 -115 0 -115 0 0 120 0 120 115 0 115 0 0
115 0 115 -115 0 -115 0 0 120 0 120 115 0 115 0 0 -115z"/>
<path d="M500 605 l0 -115 115 0 115 0 0 -115 0 -115 120 0 120 0 0 115 0 115
115 0 115 0 0 115 0 115 -115 0 -115 0 0 -115 0 -115 -120 0 -120 0 0 115 0
115 -115 0 -115 0 0 -115z"/>
<path d="M1440 605 l0 -115 -115 0 -115 0 0 -115 0 -115 115 0 115 0 0 115 0
115 115 0 115 0 0 115 0 115 -115 0 -115 0 0 -115z"/>
<path d="M1910 605 l0 -115 -115 0 -115 0 0 -115 0 -115 115 0 115 0 0 115 0
115 115 0 115 0 0 115 0 115 -115 0 -115 0 0 -115z"/>
<path d="M2382 608 l3 -113 118 -3 117 -3 0 -114 0 -115 115 0 115 0 0 115 0
115 -115 0 -115 0 0 115 0 115 -120 0 -121 0 3 -112z"/>
<path d="M2860 605 l0 -115 115 0 115 0 0 -115 0 -115 115 0 115 0 0 115 0
115 -115 0 -115 0 0 115 0 115 -115 0 -115 0 0 -115z"/>
<path d="M3330 605 l0 -115 115 0 115 0 0 115 0 115 -115 0 -115 0 0 -115z"/>
<path d="M260 375 l0 -115 115 0 115 0 0 115 0 115 -115 0 -115 0 0 -115z"/>
<path d="M2150 375 l0 -115 115 0 115 0 0 115 0 115 -115 0 -115 0 0 -115z"/>
</g>
</svg>
